<svg id="Layer_1" data-name="Layer 1" xmlns="http://www.w3.org/2000/svg" viewBox="0 0 1294 512">
    <defs>
        <style>.cls-1{fill:#ff4f4f;}.cls-2{fill:#51ad2a;}.cls-3{font-size:116.54px;fill:#fff;}.cls-3,.cls-5{font-family:Pacifico-Regular, Pacifico;}.cls-4{font-size:76.48px;}.cls-5{font-size:200px;}</style>
    </defs>
    <path class="cls-1" d="M70.44,262.08c.25-67,43.27-117.09,105.87-123,18.55-1.76,36.06,2.59,52.65,10.51,13.3,6.34,26.4,7.87,39.92.85,76.89-39.94,168.66,24.05,160.37,123.9-4.7,56.61-28.51,106.69-62.33,151.77-22.28,29.7-47.81,35.46-81.27,19-24.23-11.88-46.8-11.87-71.08-.2-35.11,16.86-60.42,9.72-83.71-21.28C94.59,375.37,70.26,310.32,70.44,262.08Z"/>
    <path class="cls-2" d="M320.72,39c1.21,51.93-19.83,82.86-58.87,94-24,6.81-55-20.27-50-52.77,1.1-7.09,5-5.06,9-3,10.3,5.29,19.4,12.12,29,24.91C259.77,63.73,286.33,47.61,320.72,39Z"/>
    <text class="cls-3" transform="translate(131.73 330.05) rotate(-9.89)">v<tspan class="cls-4" x="51.61" y="0">olunity</tspan></text>
    <text class="cls-5" transform="translate(547.29 349.91)">Volunity</text>
</svg>


